:FULLY-SPECIFIED
:FORCE-ALL-JOINTS-BE-3DOF
:DEGREES
917
root 2.74481 16.2333 32.446 2.35645 10.75 362.208
lfemur -13.4947 -2.76274 2.01388
ltibia 27.1419 0 0
lfoot 2.91799 -46.9925 0
ltoes 21.0013 0 0
rfemur -16.5867 -1.41478 -8.26919
rtibia 37.9694 0 0
rfoot 11.7694 -13.163 0
rtoes -25.8814 0 0
lowerback -0.639298 0.282299 -2.82589
upperback -0.816219 0.380697 -4.72137
thorax -0.466063 0.196112 -3.26959
lowerneck -7.19695 -5.38355 -1.4525
upperneck 4.32043 -7.43994 6.02533
head 2.9746 -3.51668 1.84923
lclavicle -8.76468e-15 7.68248e-15 0
lhumerus -51.1755 -35.5622 107.873
lradius 59.0919 0 0
lwrist 13.0861 0 0
lhand 38.3059 20.7822 0
lfingers 7.12502 0 0
lthumb 60.9656 33.4215 0
rclavicle -8.76468e-15 7.68248e-15 0
rhumerus -61.1529 33.5441 -105.98
rradius 117.988 0 0
rwrist 5.05611 0 0
rhand -0.412527 -10.7863 0
rfingers 7.12502 0 0
rthumb 25.1919 -759.109 0
918
root 2.6693 16.1999 32.4883 2.71119 10.0685 362.356
lfemur -12.1913 -4.74532 2.98986
ltibia 24.1545 0 0
lfoot 6.3176 -49.2971 0
ltoes 25.5092 0 0
rfemur -16.7793 -0.726183 -8.5435
rtibia 37.4309 0 0
rfoot 11.2351 -12.0362 0
rtoes -32.5507 0 0
lowerback -1.06021 0.238764 -2.8244
upperback -0.926272 0.340902 -4.96828
thorax -0.342851 0.175228 -3.52479
lowerneck -7.20318 -5.10291 -1.31193
upperneck 4.24975 -7.07818 6.09653
head 2.93345 -3.3335 1.86854
lclavicle -1.1208e-14 0 0
lhumerus -51.3079 -35.6989 107.644
lradius 59.1404 0 0
lwrist 13.5778 0 0
lhand 39.3467 22.0271 0
lfingers 7.12502 0 0
lthumb 61.8515 33.7047 0
rclavicle -1.1208e-14 0 0
rhumerus -62.2032 34.529 -104.699
rradius 118.296 0 0
rwrist 5.66647 0 0
rhand 1.94218 -10.0741 0
rfingers 7.12502 0 0
rthumb 27.4493 -758.094 0
919
root 2.59605 16.158 32.5253 3.01314 9.34796 362.617
lfemur -10.7608 -5.74533 3.34139
ltibia 21.4746 0 0
lfoot 7.10908 -49.5618 0
ltoes 26.7419 0 0
rfemur -17.1901 -0.644133 -8.86722
rtibia 37.5222 0 0
rfoot 9.95047 -11.3628 0
rtoes -35.7407 0 0
lowerback -1.4359 0.130946 -2.80828
upperback -1.0053 0.21596 -5.25981
thorax -0.219172 0.111402 -3.84058
lowerneck -7.16027 -4.74797 -1.13182
upperneck 4.14443 -6.61506 6.12343
head 2.86497 -3.10255 1.87084
lclavicle -1.16193e-14 -2.35342e-14 0
lhumerus -51.5621 -36.0211 107.471
lradius 59.0598 0 0
lwrist 14.203 0 0
lhand 40.0567 23.1918 0
lfingers 7.12502 0 0
lthumb 62.4364 34.0864 0
rclavicle -1.16193e-14 -2.35342e-14 0
rhumerus -62.4412 35.9472 -101.931
rradius 118.386 0 0
rwrist 4.73506 0 0
rhand 5.0693 -9.7844 0
rfingers 7.12502 0 0
rthumb 30.4245 -757.191 0
920
root 2.51723 16.1121 32.564 3.30785 8.52092 362.928
lfemur -9.17356 -6.51826 3.55382
ltibia 18.7492 0 0
lfoot 6.74009 -49.544 0
ltoes 26.8465 0 0
rfemur -17.6984 -0.701123 -9.224
rtibia 37.724 0 0
rfoot 8.46359 -10.6923 0
rtoes -38.5599 0 0
lowerback -1.80956 0.0165379 -2.78747
upperback -1.08445 0.0822528 -5.58263
thorax -0.0985189 0.0429588 -4.1939
lowerneck -7.11817 -4.34901 -0.926602
upperneck 4.05269 -6.09475 6.13007
head 2.79816 -2.84316 1.86417
lclavicle -9.36998e-15 -3.6581e-14 0
lhumerus -51.8556 -36.3935 107.289
lradius 58.9233 0 0
lwrist 14.8609 0 0
lhand 40.7972 24.2715 0
lfingers 7.12502 0 0
lthumb 63.0418 34.3211 0
rclavicle -9.36998e-15 -3.6581e-14 0
rhumerus -62.2813 37.6138 -98.4059
rradius 118.277 0 0
rwrist 3.41725 0 0
rhand 8.39155 -9.65139 0
rfingers 7.12502 0 0
rthumb 33.5752 -756.32 0
921
root 2.43557 16.0638 32.6029 3.58738 7.61743 363.276
lfemur -7.49185 -7.04509 3.63605
ltibia 16.0664 0 0
lfoot 5.36167 -49.2747 0
ltoes 25.8994 0 0
rfemur -18.2874 -0.880557 -9.59936
rtibia 38.0246 0 0
rfoot 6.83985 -10.0333 0
rtoes -40.9886 0 0
lowerback -2.16942 -0.099361 -2.7635
upperback -1.16168 -0.0541023 -5.92394
thorax 0.0150784 -0.0269877 -4.57012
lowerneck -7.08025 -3.9215 -0.703295
upperneck 3.97681 -5.53751 6.11652
head 2.73551 -2.56538 1.84881
lclavicle -5.70688e-15 -4.07259e-14 0
lhumerus -52.1773 -36.7996 107.104
lradius 58.7425 0 0
lwrist 15.5375 0 0
lhand 41.5441 25.2413 0
lfingers 7.12502 0 0
lthumb 63.6486 34.4141 0
rclavicle -5.70688e-15 -4.07259e-14 0
rhumerus -61.7326 39.4518 -94.2709
rradius 117.969 0 0
rwrist 1.80764 0 0
rhand 11.7631 -9.65108 0
rfingers 7.12502 0 0
rthumb 36.764 -755.5 0
922
root 2.3538 16.0147 32.6407 3.84382 6.66758 363.647
lfemur -5.77778 -7.30681 3.597
ltibia 13.5145 0 0
lfoot 3.12486 -48.7849 0
ltoes 23.9773 0 0
rfemur -18.9402 -1.16584 -9.97884
rtibia 38.4122 0 0
rfoot 5.14462 -9.39453 0
rtoes -43.0069 0 0
lowerback -2.50371 -0.211651 -2.73789
upperback -1.23498 -0.186988 -6.27091
thorax 0.11759 -0.0953242 -4.95458
lowerneck -7.04991 -3.48089 -0.468904
upperneck 3.91905 -4.96361 6.08286
head 2.67953 -2.27928 1.82503
lclavicle -1.87671e-15 -3.75547e-14 0
lhumerus -52.5162 -37.2232 106.923
lradius 58.5286 0 0
lwrist 16.2191 0 0
lhand 42.2735 26.076 0
lfingers 7.12502 0 0
lthumb 64.2377 34.3706 0
rclavicle -1.87671e-15 -3.75547e-14 0
rhumerus -60.8047 41.3844 -89.6738
rradius 117.46 0 0
rwrist 0.000829534 0 0
rhand 15.038 -9.75948 0
rfingers 7.12502 0 0
rthumb 39.8538 -754.749 0
923
root 2.27465 15.9665 32.676 4.06926 5.70141 364.027
lfemur -4.09354 -7.28441 3.44557
ltibia 11.1817 0 0
lfoot 0.180692 -48.1055 0
ltoes 21.1568 0 0
rfemur -19.6397 -1.54038 -10.3479
rtibia 38.8748 0 0
rfoot 3.44329 -8.78475 0
rtoes -44.5948 0 0
lowerback -2.80067 -0.315232 -2.71217
upperback -1.3023 -0.310288 -6.61074
thorax 0.204985 -0.158937 -5.33265
lowerneck -7.03053 -3.04265 -0.230439
upperneck 3.88169 -4.39333 6.02914
head 2.63271 -1.99492 1.79311
lclavicle 8.73792e-16 -2.86528e-14 0
lhumerus -52.8613 -37.6479 106.753
lradius 58.2928 0 0
lwrist 16.8915 0 0
lhand 42.9614 26.7508 0
lfingers 7.12502 0 0
lthumb 64.7899 34.1959 0
rclavicle 8.73792e-16 -2.86528e-14 0
rhumerus -59.5067 43.3346 -84.762
rradius 116.747 0 0
rwrist -1.90858 0 0
rhand 18.0705 -9.95258 0
rfingers 7.12502 0 0
rthumb 42.7074 -754.086 0
924
root 2.20085 15.9209 32.7074 4.25577 4.749 364.402
lfemur -2.50127 -6.95888 3.19067
ltibia 9.15643 0 0
lfoot -3.31981 -47.2677 0
ltoes 17.5144 0 0
rfemur -20.369 -1.98758 -10.6922
rtibia 39.4007 0 0
rfoot 1.80123 -8.21267 0
rtoes -45.7327 0 0
lowerback -3.04851 -0.405005 -2.68786
upperback -1.36161 -0.417885 -6.93063
thorax 0.273235 -0.214712 -5.68967
lowerneck -7.02548 -2.62222 0.00509306
upperneck 3.86699 -3.84693 5.95545
head 2.59756 -1.72235 1.75332
lclavicle 1.29788e-15 -1.56061e-14 0
lhumerus -53.2013 -38.0574 106.601
lradius 58.0467 0 0
lwrist 17.5409 0 0
lhand 43.5839 27.2405 0
lfingers 7.12502 0 0
lthumb 65.2861 33.8953 0
rclavicle 1.29788e-15 -1.56061e-14 0
rhumerus -57.8481 45.2257 -79.6829
rradius 115.831 0 0
rwrist -3.826 0 0
rhand 20.7147 -10.2064 0
rfingers 7.12502 0 0
rthumb 45.1875 -753.528 0
925
root 2.13513 15.8796 32.7337 4.39544 3.84042 364.759
lfemur -1.06315 -6.31122 2.8412
ltibia 7.52681 0 0
lfoot -7.2256 -46.3024 0
ltoes 13.1266 0 0
rfemur -21.1112 -2.49084 -10.9972
rtibia 39.9781 0 0
rfoot 0.283837 -7.68699 0
rtoes -46.4005 0 0
lowerback -3.23548 -0.47587 -2.6665
upperback -1.41089 -0.503662 -7.21775
thorax 0.318308 -0.259537 -6.011
lowerneck -7.03814 -2.23507 0.230682
upperneck 3.87724 -3.34467 5.86185
head 2.57656 -1.47165 1.70594
lclavicle -1.85118e-15 0 0
lhumerus -53.5254 -38.4352 106.474
lradius 57.8015 0 0
lwrist 18.1533 0 0
lhand 44.117 27.5203 0
lfingers 7.12502 0 0
lthumb 65.7072 33.474 0
rclavicle -1.85118e-15 0 0
rhumerus -55.8381 46.9807 -74.5842
rradius 114.708 0 0
rwrist -5.65682 0 0
rhand 22.8247 -10.4969 0
rfingers 7.12502 0 0
rthumb 47.1569 -753.094 0
926
root 2.07612 15.8395 32.7481 4.47738 2.95428 365.065
lfemur 0.0552492 -5.49085 2.43704
ltibia 6.6721 0 0
lfoot -11.3122 -43.9208 0
ltoes 7.00806 0 0
rfemur -22.0479 -3.10524 -11.1729
rtibia 40.8106 0 0
rfoot -1.09082 -7.10857 0
rtoes -46.4047 0 0
lowerback -3.30496 -0.527602 -2.6244
upperback -1.42931 -0.571628 -7.43066
thorax 0.328532 -0.295726 -6.26728
lowerneck -7.0933 -1.87524 0.499717
upperneck 3.84848 -2.87845 5.69146
head 2.55513 -1.24081 1.62306
lclavicle -4.16035e-15 4.03828e-15 0
lhumerus -53.9551 -38.8865 106.529
lradius 57.6387 0 0
lwrist 19.1508 0 0
lhand 44.1624 27.6885 0
lfingers 7.12502 0 0
lthumb 65.7417 33.5743 0
rclavicle -4.16035e-15 4.03828e-15 0
rhumerus -51.9757 48.0812 -68.1156
rradius 112.216 0 0
rwrist -7.14403 0 0
rhand 23.4225 -10.6512 0
rfingers 7.12502 0 0
rthumb 47.7081 -752.991 0
927
root 2.01327 15.7966 32.7607 4.57088 2.06025 365.346
lfemur 1.12607 -4.6551 2.0547
ltibia 5.92692 0 0
lfoot -15.234 -41.1199 0
ltoes 0.793889 0 0
rfemur -23.0515 -3.75097 -11.299
rtibia 41.7138 0 0
rfoot -2.52045 -6.50005 0
rtoes -46.3382 0 0
lowerback -3.36463 -0.589253 -2.55453
upperback -1.43682 -0.653992 -7.62616
thorax 0.342498 -0.339196 -6.52176
lowerneck -7.14622 -1.50315 0.798467
upperneck 3.77317 -2.3956 5.50231
head 2.51837 -1.003 1.52933
lclavicle -5.97476e-15 9.32838e-15 0
lhumerus -54.4561 -39.4116 106.673
lradius 57.4992 0 0
lwrist 20.3172 0 0
lhand 44.0351 27.9152 0
lfingers 7.12502 0 0
lthumb 65.6412 33.968 0
rclavicle -5.97476e-15 9.32838e-15 0
rhumerus -47.4674 48.8412 -60.9522
rradius 109.046 0 0
rwrist -8.65253 0 0
rhand 23.6819 -10.8404 0
rfingers 7.12502 0 0
rthumb 47.9471 -753.068 0
928
root 1.94865 15.7526 32.7714 4.67418 1.18917 365.594
lfemur 2.11838 -3.83273 1.7071
ltibia 5.30278 0 0
lfoot -18.8887 -38.0462 0
ltoes -5.28361 0 0
rfemur -24.0803 -4.40488 -11.3737
rtibia 42.6473 0 0
rfoot -3.96034 -5.88528 0
rtoes -46.2143 0 0
lowerback -3.41521 -0.658391 -2.45937
upperback -1.43454 -0.747374 -7.79872
thorax 0.359894 -0.388164 -6.76685
lowerneck -7.19393 -1.13173 1.1147
upperneck 3.65789 -1.91301 5.30336
head 2.46854 -0.766415 1.42913
lclavicle -6.69317e-15 1.38118e-14 0
lhumerus -55.0047 -39.9856 106.894
lradius 57.3811 0 0
lwrist 21.5835 0 0
lhand 43.7668 28.175 0
lfingers 7.12502 0 0
lthumb 65.4298 34.5843 0
rclavicle -6.69317e-15 1.38118e-14 0
rhumerus -42.5409 49.241 -53.41
rradius 105.329 0 0
rwrist -10.1468 0 0
rhand 23.6131 -11.0775 0
rfingers 7.12502 0 0
rthumb 47.8829 -753.329 0
929
root 1.88434 15.709 32.78 4.7855 0.37186 365.798
lfemur 3.00128 -3.0525 1.40716
ltibia 4.81124 0 0
lfoot -22.174 -34.8463 0
ltoes -10.9921 0 0
rfemur -25.0923 -5.04384 -11.3952
rtibia 43.5707 0 0
rfoot -5.36579 -5.28812 0
rtoes -46.046 0 0
lowerback -3.45737 -0.732582 -2.34137
upperback -1.42359 -0.848396 -7.94279
thorax 0.380408 -0.440847 -6.99494
lowerneck -7.23344 -0.773942 1.43617
upperneck 3.50922 -1.44754 5.10358
head 2.40791 -0.539245 1.32683
lclavicle -5.71435e-15 1.54298e-14 0
lhumerus -55.5774 -40.5834 107.181
lradius 57.2828 0 0
lwrist 22.8808 0 0
lhand 43.389 28.4426 0
lfingers 7.12502 0 0
lthumb 65.1319 35.3521 0
rclavicle -5.71435e-15 1.54298e-14 0
rhumerus -37.4236 49.2612 -45.8047
rradius 101.194 0 0
rwrist -11.5914 0 0
rhand 23.2262 -11.376 0
rfingers 7.12502 0 0
rthumb 47.5246 -753.783 0
930
root 1.82241 15.6674 32.7864 4.90309 -0.360867 365.949
lfemur 3.74383 -2.34317 1.16778
ltibia 4.4638 0 0
lfoot -24.9878 -31.6667 0
ltoes -16.0994 0 0
rfemur -26.0457 -5.64472 -11.3615
rtibia 44.4437 0 0
rfoot -6.69209 -4.73241 0
rtoes -45.8465 0 0
lowerback -3.49181 -0.809391 -2.20299
upperback -1.40513 -0.953679 -8.05284
thorax 0.403728 -0.495463 -7.19844
lowerneck -7.2618 -0.442713 1.75064
upperneck 3.33374 -1.01607 4.91196
head 2.33877 -0.329685 1.2268
lclavicle -2.43704e-15 1.21241e-14 0
lhumerus -56.1505 -41.18 107.52
lradius 57.2025 0 0
lwrist 24.1401 0 0
lhand 42.9332 28.6924 0
lfingers 7.12502 0 0
lthumb 64.7717 36.2003 0
rclavicle -2.43704e-15 1.21241e-14 0
rhumerus -32.3433 48.8821 -38.4522
rradius 96.7726 0 0
rwrist -12.9508 0 0
rhand 22.5313 -11.7491 0
rfingers 7.12502 0 0
rthumb 46.8813 -754.435 0
